<?xml version="1.0" standalone="no"?>
<!DOCTYPE svg PUBLIC "-//W3C//DTD SVG 20010904//EN"
 "http://www.w3.org/TR/2001/REC-SVG-20010904/DTD/svg10.dtd">
<svg version="1.0" xmlns="http://www.w3.org/2000/svg"
 width="512.000000pt" height="512.000000pt" viewBox="0 0 512.000000 512.000000"
 preserveAspectRatio="xMidYMid meet">
<metadata>
Created by potrace 1.14, written by Peter Selinger 2001-2017
</metadata>
<g transform="translate(0.000000,512.000000) scale(0.100000,-0.100000)"
fill="#000000" stroke="none">
<path d="M0 2560 l0 -2560 2560 0 2560 0 0 2560 0 2560 -2560 0 -2560 0 0
-2560z m4016 1333 c53 -28 100 -82 114 -130 8 -27 10 -421 8 -1340 l-3 -1301
-30 -44 c-17 -23 -49 -53 -70 -65 l-40 -23 -1415 0 c-1351 0 -1417 1 -1455 19
-51 23 -93 65 -116 116 -18 38 -19 100 -19 1333 0 1144 2 1297 15 1330 27 63
78 105 150 123 17 4 658 6 1425 6 l1395 -2 41 -22z"/>
<path d="M1394 3561 c-49 -30 -56 -61 -52 -226 l3 -147 33 -29 32 -29 1170 0
1170 0 32 29 33 29 3 150 c3 122 0 156 -12 181 -34 65 41 61 -1228 61 -1110 0
-1154 -1 -1184 -19z"/>
<path d="M2664 2779 c-16 -5 -41 -20 -55 -35 -23 -24 -24 -32 -27 -174 -5
-227 8 -240 228 -240 209 0 220 12 220 234 0 140 -1 145 -26 175 -14 17 -42
35 -62 41 -45 12 -235 12 -278 -1z"/>
<path d="M3355 2784 c-84 -20 -95 -47 -95 -232 0 -133 2 -152 20 -174 33 -43
66 -50 219 -46 l141 3 32 33 33 32 3 139 c5 225 -11 245 -208 248 -69 1 -134
-1 -145 -3z"/>
<path d="M1501 2084 c-40 -29 -51 -73 -51 -210 0 -212 17 -227 243 -222 l149
3 29 33 29 32 0 151 c0 226 -3 229 -228 229 -120 0 -152 -3 -171 -16z"/>
<path d="M2164 2066 l-34 -34 0 -146 c0 -225 10 -236 225 -236 217 0 228 12
223 242 l-3 150 -33 29 -32 29 -156 0 -156 0 -34 -34z"/>
</g>
</svg>
